# xmcd
#
# Track frame offsets:
# 150
# 15561
# 29916
# 38644
# 53427
# 69734
# 84379
# 96989
# 108778
# 122019
# 135361
# 142971
#
# Disc length: 2181 seconds
#
#
# Revision: 0
# Processed by: cddbd v1.5.1PL2 Copyright (c) Steve Scherf et al.
# Submitted via: FreeRIP 2.91 
#
DISCID=9608830c
DTITLE=Riro Maniscalco - Jonathan Fields - Blues and Mercy
DYEAR=2006
DGENRE=Blues
TTITLE0=Live in my life
TTITLE1=The wounded heart
TTITLE2=Singing
TTITLE3=Waitin' for somebody to come
TTITLE4=Would you
TTITLE5=Rumors of war
TTITLE6=Cry no more
TTITLE7=Nightime
TTITLE8=Stay with me
TTITLE9=As white as the blues can be
TTITLE10=A sweet, sweet song
TTITLE11=The morning star
EXTD=
EXTT0=
EXTT1=
EXTT2=
EXTT3=
EXTT4=
EXTT5=
EXTT6=
EXTT7=
EXTT8=
EXTT9=
EXTT10=
EXTT11=
PLAYORDER=
